<svg width="270" height="400" viewBox="0 0 270 400" fill="none" xmlns="http://www.w3.org/2000/svg">
<path fill-rule="evenodd" clip-rule="evenodd" d="M16.1522 274.172L252.028 292.897L252.275 294.5C256.227 320.242 258.224 337.705 258.264 346.891L258.265 347.173C258.265 356.281 261.061 370.767 266.653 390.631L266.999 391.854L15.823 392.292L12.86 332.502L16.1522 274.172ZM155.797 145.874C165.387 146.347 175.053 150.459 175.8 153.086C177.463 158.939 180.137 183.991 188.93 187.84C197.723 191.689 216.496 188.18 221.863 197.372C227.23 206.564 244.857 244.033 244.857 252.763C244.857 258.584 187.414 260.604 72.5287 258.825C73.9953 211.943 80.1098 187.299 90.872 184.893L91.8328 184.68C107.397 181.281 116.699 181.171 122.008 175.69C127.426 170.098 128.409 160.498 130.656 153.086C131.895 149.002 144.027 145.293 155.797 145.874Z" fill="white"/>
<path fill-rule="evenodd" clip-rule="evenodd" d="M176.829 160.526C176.866 160.498 176.902 160.489 176.941 160.509C177.689 160.868 177.843 161.586 178.1 162.333C178.476 163.426 178.91 164.493 179.312 165.576C180.112 167.749 180.876 169.918 181.768 172.055C182.683 174.254 183.631 176.414 184.718 178.537C185.241 179.564 185.804 180.572 186.377 181.573C186.772 182.267 187.141 183.222 187.661 183.874C187.7 183.666 187.756 183.469 187.822 183.285C187.753 183.317 187.687 183.354 187.625 183.393C187.493 183.475 187.335 183.311 187.414 183.182C187.697 182.715 188.066 182.399 188.487 182.185C189.652 180.891 215.341 187.066 222.364 194.001C235.082 206.561 243.667 222.089 249.313 238.61C252.431 247.726 255.302 256.931 258.268 266.096C261.402 275.788 264.675 285.438 267.815 295.123C268.504 297.253 267.002 299.189 265.106 299.89C261.573 301.194 258.015 302.422 254.426 303.558C256.168 310.244 257.386 317.072 258.262 323.92C260.069 338.04 260.296 352.447 263.144 366.419C263.798 369.625 264.625 372.787 265.499 375.94L265.702 376.667C266.222 378.517 266.696 380.384 267.335 382.195C267.885 383.752 268.596 385.322 268.981 386.929C269.432 388.819 268.767 390.883 266.999 391.854C265.58 392.634 263.549 392.312 262.693 390.847C262.518 390.547 262.413 390.221 262.37 389.892C262.242 389.619 262.123 389.339 262.018 389.052C261.977 388.942 261.941 388.828 261.906 388.713L261.804 388.371C261.554 387.554 261.323 386.731 261.093 385.908C260.717 384.588 260.34 383.272 259.922 381.963L259.71 381.309C258.676 378.162 257.751 374.988 256.945 371.775C254.058 360.254 253.446 348.325 252.653 336.517L252.612 335.907C251.894 325.326 251.466 314.768 252.346 304.21L252.225 304.249L252.105 304.285C250.963 304.634 249.817 304.977 248.668 305.309C248.632 305.322 248.599 305.336 248.563 305.345C247.828 305.573 247.072 305.789 246.303 305.99L245.84 306.109L245.514 306.198L245.171 306.296C244.082 306.611 242.972 306.975 241.843 306.939C239.973 307.238 238.071 307.419 236.201 307.426C236.777 316.845 237.442 326.257 238.235 335.66C239.032 345.112 240.089 354.527 241.185 363.943C241.725 368.595 242.304 373.237 242.943 377.872C243.266 380.223 243.601 382.56 244.029 384.891C244.471 387.275 245.251 389.823 244.78 392.233C244.77 392.229 244.76 392.226 244.75 392.226C244.592 392.924 244.171 393.55 243.437 393.981C242.09 394.768 240.207 394.307 239.434 392.931C239.368 392.815 239.305 392.697 239.246 392.575C238.453 392.914 237.583 393.046 236.517 393.056L222.051 393.201C215.476 393.266 208.902 393.336 202.324 393.431C181.673 393.735 161.021 394.087 140.37 394.337L132.625 394.425C121.011 394.547 109.389 394.787 97.7743 394.784C91.9639 394.784 86.1595 394.764 80.3488 394.623C77.534 394.554 74.7257 394.445 71.9142 394.33L71.4179 394.307C69.1733 394.196 66.7903 393.988 64.5957 394.491C63.9899 395.67 62.4426 395.913 61.6327 394.708C59.782 391.951 59.277 388.105 58.9351 384.735L58.8146 383.522C58.436 379.745 58.1035 375.969 57.8566 372.187C56.9809 358.784 56.6616 345.368 57.0632 331.94C57.2673 325.095 57.8961 318.29 58.6402 311.485C58.8739 309.362 59.1175 307.242 59.3809 305.125L59.3854 304.372C59.3858 304.131 59.3842 303.902 59.3776 303.686L59.312 301.644C59.2574 299.941 59.2068 298.238 59.1857 296.534L59.1768 295.512L59.1669 293.609C57.5406 293.454 55.8056 292.914 54.4031 292.654C52.1285 292.229 49.8599 291.772 47.5982 291.288C43.0681 290.313 38.5875 289.161 34.1364 287.887L33.1898 287.615C29.0827 286.432 24.9191 285.17 21.0336 283.4C19.5126 282.705 17.9949 281.922 16.6616 280.894C16.5825 281.974 16.4607 283.051 16.3883 284.121C16.2438 286.238 16.0723 288.348 15.9307 290.465L15.7953 292.479C15.5729 295.835 15.3727 299.187 15.2821 302.554C14.8805 317.237 14.8113 331.982 15.5883 346.656C15.9735 354.001 16.5233 361.345 17.3167 368.661C17.7052 372.259 18.1167 375.867 18.6237 379.452C19.1472 383.136 20.092 386.797 20.3817 390.508C20.6583 394.086 15.1867 394.606 14.2879 391.334C13.2117 387.41 12.9376 383.177 12.3703 379.143L12.306 378.695C11.6772 374.409 11.1735 370.106 10.7389 365.796C9.23859 350.932 8.84921 335.992 9.63604 321.072C10.0101 313.926 10.8971 306.808 11.9706 299.738L12.0953 298.922C12.584 295.756 13.0415 292.59 13.5949 289.437L13.8072 288.256C14.3044 285.546 14.6862 282.6 15.4928 279.89L15.2531 279.669C14.8048 279.252 14.319 278.768 13.9653 278.247C12.7472 278.083 11.7101 277.207 11.8385 275.617C12.2566 270.392 14.1661 265.079 15.8681 260.147C17.5768 255.189 19.5587 250.323 21.8039 245.582C29.7019 228.921 41.0764 213.793 54.9858 201.675C62.3636 195.245 70.4492 189.543 79.3842 185.484C83.7891 183.479 88.3455 181.928 93.1192 181.092C95.4829 180.677 97.8698 180.354 100.273 180.285C102.223 179.134 104.538 179.619 106.426 180.881L106.528 180.95H106.532L107.015 181.046C107.134 181.069 107.131 181.257 107.015 181.283C107.009 181.283 106.999 181.286 106.992 181.289C107.302 181.533 107.595 181.793 107.868 182.073C108.77 182.995 108.767 184.108 108.303 185.006C111.065 187.568 112.81 190.857 114.637 194.172C116.596 197.721 119.16 200.789 122.281 203.377C133.722 212.865 150.548 217.062 164.882 212.582C175.424 209.289 184.428 200.378 186.917 189.648C186.327 189.859 185.689 189.892 185.083 189.675C182.238 188.661 181.154 185.552 180.066 182.952L180.013 182.827C178.95 180.308 178.057 177.75 177.353 175.11C176.642 172.443 176.224 169.629 176.049 166.876C175.982 165.788 176.011 164.7 176.068 163.612L176.118 162.712C176.156 161.896 176.144 161.063 176.829 160.526ZM130.545 153.187C130.584 153.089 130.739 153.036 130.798 153.154C133.317 158.35 131.664 165.467 129.284 170.422C126.792 175.604 123.039 179.535 118.591 182.936C117.979 183.403 117.349 183.864 116.711 184.315C113 186.936 109.695 179.871 113.979 178.521C118.443 176.252 122.071 172.21 124.592 167.963C125.956 165.668 127.164 163.278 128.089 160.769C129.011 158.267 129.564 155.663 130.545 153.187Z" fill="black"/>
<path fill-rule="evenodd" clip-rule="evenodd" d="M208.44 82.9845C207.218 73.2327 203.379 62.879 199.342 53.7876C190.264 34.5659 169.482 31.9194 150.851 27.9563C132.466 25.2798 112.998 22.863 94.8899 28.2032C84.7102 30.6971 80.7342 42.8208 82.3408 52.3882C83.2577 58.3501 85.9714 63.9925 88.2855 69.5178C92.885 80.8646 95.8032 93.0124 95.8081 105.298C95.4924 113.326 94.3592 122.489 103.585 125.89C112.364 130.256 113.106 142.09 124.099 148.805C128.544 157.809 140.653 158.601 149.367 160.69C154.875 161.744 160.446 162.52 166.031 163.021C182.204 165.093 195.143 160.407 203.609 146C209.274 137.232 213.493 127.108 212.451 116.481C211.413 105.291 209.684 94.1594 208.44 82.9845Z" fill="white"/>
<path fill-rule="evenodd" clip-rule="evenodd" d="M150.99 4.59552C151.913 3.54927 153.336 3.90812 154.199 4.73544C154.761 4.90104 155.305 5.14729 155.82 5.47322C156.982 5.32408 158.2 5.32408 159.34 5.3659C159.617 5.21083 159.913 5.07289 160.235 4.95437C162.54 4.1119 164.581 4.53989 166.264 5.66779C167.075 4.90071 168.098 4.41939 169.405 4.49215C170.573 4.55734 171.404 5.10647 172.117 5.82976C172.828 4.80491 173.977 4.07371 175.408 3.97199C177.409 3.82976 179.332 4.63207 180.926 5.87421C181.855 4.80886 183.121 4.19651 184.532 4.19059C185.46 4.02203 186.44 4.08853 187.325 4.35585C188.611 4.744 189.739 5.47124 190.638 6.41511C192.06 5.05347 193.801 4.07371 195.807 4.21659C198.405 4.40425 200.558 6.31404 201.559 8.66466C203.317 9.36886 204.94 10.3733 206.296 11.8054C206.369 11.8808 206.438 11.9598 206.51 12.0391C207.241 12.3088 207.929 12.691 208.535 13.1944C210.454 14.7914 210.882 17.1025 210.247 19.3672C210.336 19.7297 210.412 20.0984 210.481 20.4668C212.278 20.7401 213.911 21.7774 214.84 23.4663C216.11 25.784 215.86 28.8388 214.484 31.0515C213.892 32.0033 213.141 32.8052 212.298 33.5065C213.252 35.6727 212.794 38.2577 211.256 40.0098C210.882 40.614 210.422 41.1591 209.904 41.6526C210.475 43.8923 209.459 46.2031 207.431 47.3998L207.258 47.834C207.229 47.9061 207.199 47.9779 207.169 48.049C207.146 48.1412 207.119 48.2304 207.091 48.3203C207.043 49.115 206.781 49.8949 206.262 50.6298C205.198 52.1357 203.88 53.1177 203.181 54.8757L203.111 55.0604C202.81 55.8923 201.84 56.4793 201.013 56.2225C205.604 65.6517 208.012 76.1435 209.664 86.4256C210.488 91.5553 211.124 96.7025 211.64 101.87L212.146 107.015C212.591 111.589 212.987 116.178 212.989 120.766C212.996 131.147 210.026 141.132 203.653 149.392C197.625 157.201 189.095 162.86 179.458 165.089C169.51 167.387 157.839 166.482 148.917 161.221C146.286 159.674 148.591 155.953 151.268 157.198C156.334 159.555 161.483 161.307 167.1 161.698C172.575 162.083 178.063 161.398 183.254 159.608C191.844 156.642 199.152 150.429 203.85 142.693C206.165 138.88 207.84 134.742 208.733 130.37C209.843 124.92 209.676 119.288 209.268 113.768L209.24 113.392C208.433 102.758 207.37 92.0586 205.651 81.5305C204.132 72.2205 201.796 63.0992 198.764 54.1797C197.576 53.1341 196.247 52.2689 194.825 51.6118C184.413 51.1769 173.982 51.304 163.584 52.0224C154.715 52.639 145.89 53.6823 137.131 55.2028L136.193 55.3675C134.254 55.7129 132.1 55.9104 130.273 56.691C128.706 57.3626 128.071 58.6531 127.676 60.2396C126.682 64.2528 126.53 68.6449 126.362 72.7601C126.198 76.7828 126.57 80.8391 126.247 84.8487C125.974 88.2034 125.114 91.6372 122.629 94.0638C121.328 95.3343 119.728 96.0289 118.227 96.9935C117.256 97.6161 116.844 98.2577 116.97 99.41C117.24 101.932 119.271 105.109 116.989 107.268C116.588 107.647 115.893 107.696 115.498 107.268C114.556 106.245 113.256 105.464 112.14 104.638C111.672 104.296 112.061 103.631 112.591 103.868C113.289 104.181 114 104.549 114.728 104.872C113.121 103.549 110.836 102.9 108.933 102.515C107.975 102.324 106.968 102.268 105.97 102.357C105.233 102.709 104.479 103.035 103.725 103.354C102.767 103.756 101.799 104.121 100.825 104.467C97.4437 107.222 95.8305 111.703 96.535 116.085C96.9202 118.505 98.0363 121.135 100.14 122.548C102.632 124.22 105.97 123.502 108.663 124.744C111.185 125.905 112.719 128.253 113.868 130.683L114.347 131.694C115.414 133.934 116.51 136.114 117.967 138.152C119.653 140.513 121.717 142.633 123.969 144.454C125.061 145.335 126.226 146.128 127.429 146.85L127.758 147.045C128.976 147.759 129.849 148.44 129.931 149.952C129.957 150.478 129.625 150.959 129.197 151.232C127.353 152.401 125.519 150.939 123.985 149.919C122.329 148.819 120.746 147.582 119.281 146.232C116.496 143.67 114.086 140.628 112.232 137.326C110.82 134.811 110.016 131.272 107.784 129.323C106.421 128.134 104.496 128.125 102.793 127.907C101.21 127.703 99.712 127.374 98.3029 126.594C92.5712 123.41 90.9515 115.703 92.3111 109.748C92.5416 108.743 92.8642 107.766 93.2626 106.824C91.1293 107.18 88.7325 104.974 89.5984 102.748C89.6642 102.58 89.74 102.423 89.8124 102.261C88.4066 101.336 87.2972 99.9338 86.7704 98.0997C86.5004 97.1516 86.4609 96.1935 86.6025 95.2684C85.921 94.8112 85.3581 94.182 84.9959 93.4084C83.8634 92.8849 82.8593 92.1017 82.2601 90.9824C81.4305 89.438 81.5358 88.0158 82.1679 86.7351C82.0791 86.5741 81.9935 86.4095 81.9111 86.2413C79.5902 84.77 77.9704 82.2347 78.1548 79.4232C78.214 78.4915 78.4445 77.652 78.8 76.8951C78.7704 76.7996 78.7408 76.7005 78.7144 76.6051C76.7721 75.6174 75.1655 73.9947 74.5926 71.8284C74.0198 69.6487 74.6947 67.4759 76.0445 65.8034C74.0692 64.3585 72.8807 62.3404 73.6017 59.2882C73.8947 58.0474 74.484 56.9178 75.2807 55.9664C75.2774 55.9371 75.2708 55.9075 75.2642 55.8775L75.0794 55.7342C72.6409 53.8099 71.2391 51.3577 72.7358 48.3417C73.4074 46.9856 74.3655 46.0405 75.4914 45.4182L75.5474 45.2405C74.7408 43.5121 74.4675 41.5927 75.0239 39.5746C75.4782 37.9124 76.5548 36.5886 77.9309 35.7099C77.8387 34.9656 77.8519 34.1725 78 33.3129C78.247 31.8614 78.9679 30.5939 80.0214 29.6951C80.0609 29.5038 80.1103 29.3165 80.1663 29.1285C80.5218 27.9799 81.1869 26.7321 81.9572 25.8067C82.5926 25.0396 83.3037 24.7598 84.1729 24.7302C84.1202 24.0227 84.1564 23.3047 84.3013 22.5771C84.7457 20.3321 86.1745 18.2215 88.2914 17.2635C89.1605 16.8717 90.0758 16.7568 90.9581 16.852C91.7087 15.2717 93.1737 14.1264 94.9745 13.8795C95.6758 13.7807 96.3276 13.787 96.9268 13.8762C97.2659 13.7178 97.6181 13.5766 97.9869 13.4479C98.2305 13.3623 98.4774 13.2833 98.7243 13.2046C99.5572 12.1708 100.654 11.3442 101.934 10.8474C103.412 10.2712 104.917 10.3302 106.25 10.8141L106.675 10.7252C107.34 9.57297 108.4 8.68079 110.03 8.27585C111.88 7.81824 113.779 8.45692 115.235 9.61939C115.241 9.61939 115.248 9.61939 115.258 9.61577C116.018 7.91371 117.319 6.72853 119.501 6.81083C120.861 6.86351 122.089 7.53873 123.037 8.50005C123.564 8.43388 124.091 8.37462 124.621 8.31569C125.18 7.66022 125.803 7.0482 126.491 6.49841C127.617 5.59602 129.082 5.66878 129.911 6.93923C130.092 7.21577 130.26 7.49561 130.428 7.77544L131.189 7.72277C132.084 6.51454 133.305 5.69808 134.978 5.63256C136.512 5.56968 137.605 6.32063 138.438 7.3705C139.116 7.35404 139.798 7.3412 140.479 7.331C141.272 6.41248 142.207 5.6026 143.274 4.931C144.091 4.41742 145.296 4.59223 145.957 5.27701C146.404 5.74252 146.82 6.22845 147.207 6.73149C148.204 5.61347 149.551 4.87701 150.99 4.59552ZM102.537 109.139C104.074 108.263 106.142 109.211 107.63 109.955C109.444 110.86 111.244 112.227 112.354 113.939C113.865 116.269 110.313 118.153 108.723 116.062C107.745 114.775 106.965 113.478 105.779 112.352C104.696 111.318 103.126 110.627 102.504 109.264C102.481 109.218 102.487 109.165 102.537 109.139ZM103.617 52.5622L103.645 52.48C104.083 51.2839 102.175 50.7684 101.741 51.9545C101.084 53.7524 101.841 55.707 103.617 56.4833C104.109 56.6986 104.672 56.6238 104.968 56.129C105.217 55.7126 105.102 54.9909 104.614 54.7779C103.615 54.341 103.28 53.5698 103.617 52.5622ZM87.1783 49.2178C88.1334 48.375 86.7319 46.982 85.7814 47.8212C84.8945 48.6041 84.2367 49.6675 84.4076 50.8905C84.5818 52.1369 85.5217 53.0169 86.5505 53.6388C87.6409 54.2982 88.6348 52.5909 87.5474 51.9331L87.4252 51.8584C86.9688 51.5749 86.4345 51.1852 86.3572 50.6275C86.2753 50.0349 86.7767 49.5723 87.1783 49.2178ZM92.5997 34.3464L92.6674 34.2966C93.6932 33.5644 92.7079 31.8505 91.6702 32.5909C90.7187 33.2701 89.9556 34.1524 89.8753 35.3692C89.7972 36.5517 90.399 37.5769 91.1859 38.4089C92.0613 39.3343 93.4565 37.9358 92.5828 37.0123C91.7314 36.1123 91.565 35.1302 92.5997 34.3464Z" fill="black"/>
<path fill-rule="evenodd" clip-rule="evenodd" d="M167.127 139.894C164.914 138.991 162.94 137.485 161.496 135.561C160.994 134.892 160.864 134.186 160.969 133.54C161.088 132.814 161.517 132.155 162.103 131.714C162.691 131.271 163.426 131.052 164.137 131.164C164.755 131.261 165.37 131.599 165.856 132.3L165.958 132.44C166.816 133.602 167.935 134.554 169.209 135.168C170.437 135.76 171.811 136.036 173.233 135.876C175.94 135.57 177.806 134.106 179.79 132.117C180.036 131.866 180.282 131.607 180.529 131.344C180.685 131.106 180.902 130.953 181.142 130.872C181.409 130.783 181.711 130.788 181.988 130.885C182.255 130.978 182.494 131.154 182.654 131.389C182.806 131.612 182.892 131.888 182.864 132.205C182.682 134.266 181.605 136.105 180.075 137.549C178.375 139.153 176.122 140.262 174.001 140.652C171.664 141.08 169.283 140.773 167.127 139.894ZM175.103 108.104C177.59 109.616 181.378 113.139 178.703 116.885C175.555 120.189 171.023 116.401 168.789 114.688C166.718 113.361 164.391 116.775 166.313 118.325C182.452 130.274 189.002 108.5 176.361 106.328C174.969 106.088 174.452 107.637 175.103 108.104ZM146.181 94.2046C146.456 90.7951 151.649 90.0209 152.165 93.3947C152.628 96.4169 152.083 99.1932 150.722 101.914C149.421 104.514 146.152 103.301 145.905 100.934C145.573 97.7609 146.01 96.3255 146.181 94.2046ZM185.708 92.6951C186.432 91.747 187.478 91.0998 188.73 91.4655C192.643 92.6089 191.49 98.1638 190.115 100.868C189.369 102.336 186.955 102.708 185.865 101.415C184.087 99.3072 183.235 95.0968 185.495 93.0201C185.557 92.9128 185.625 92.8044 185.708 92.6951ZM150.667 79.2858L151.285 79.1776C153.197 78.8469 155.574 78.5292 156.927 80.0663C157.644 80.8815 157.891 82.3965 156.927 83.1768C155.231 84.5496 153.356 84.0176 151.323 84.1338C149.648 84.23 148.038 84.5072 146.425 84.9684C142.885 85.9801 140 87.827 136.977 89.855C136.581 90.121 136.176 89.6137 136.365 89.2426C138.11 85.8244 141.492 83.0165 144.88 81.3049C146.688 80.3913 148.666 79.6334 150.667 79.2858ZM182.142 77.7545L182.615 77.8513C187.763 78.9274 194.451 81.077 196.889 86.1336C196.982 86.8486 196.884 87.0019 196.804 87.102L196.778 87.1353C196.712 87.2208 196.659 87.3387 196.349 87.436C196.263 87.4155 196.177 87.3938 196.089 87.3708C194.971 87.0779 194.087 86.6745 193.231 86.2559L192.303 85.7987C191.226 85.2707 190.14 84.762 188.989 84.3864C186.532 83.5851 184.005 83.0207 181.439 82.7193C180.883 82.654 180.348 82.4663 179.925 82.1446C179.524 81.8392 179.218 81.4164 179.078 80.8545C178.897 80.1272 178.949 79.5766 179.339 78.9205C179.633 78.4278 180.053 78.0863 180.535 77.8902C181.026 77.6903 181.586 77.6431 182.142 77.7545Z" fill="black"/>
<rect x="0.349792" y="141" width="269" height="259" fill="url(#paint0_linear_33_897)"/>
<defs>
<linearGradient id="paint0_linear_33_897" x1="135.35" y1="172.259" x2="135.35" y2="367.625" gradientUnits="userSpaceOnUse">
<stop stop-color="white" stop-opacity="0"/>
<stop offset="1" stop-color="white"/>
</linearGradient>
</defs>
</svg>
