<svg width="595" height="160" viewBox="0 0 595 160" fill="none" xmlns="http://www.w3.org/2000/svg">
<g clip-path="url(#clip0_57_238)">
<g opacity="0.92" filter="url(#filter0_f_57_238)">
<path fill-rule="evenodd" clip-rule="evenodd" d="M300.975 355.397C223.206 359.207 177.977 326.547 116.444 308.54C45.556 287.795 -58.9049 283.815 -80.7174 243.698C-104.621 199.735 -56.3775 148.114 6.67624 106.659C72.4166 63.4381 163.41 30.6555 265.212 16.2651C375.409 0.687924 494.011 -2.57295 577.273 26.0012C661.264 54.8255 702.423 107.807 690.845 162.335C680.497 211.073 597.387 251.116 521.495 288.698C457.746 320.266 384.896 351.286 300.975 355.397Z" fill="#F7F9FB" fill-opacity="0.7"/>
</g>
<line x1="595" y1="145.705" y2="145.705" stroke="#64748A" stroke-width="0.5" stroke-dasharray="2 2"/>
<line x1="595" y1="131.159" y2="131.159" stroke="#64748A" stroke-width="0.5" stroke-dasharray="2 2"/>
<line x1="595" y1="116.614" y2="116.614" stroke="#64748A" stroke-width="0.5" stroke-dasharray="2 2"/>
<line x1="595" y1="102.068" y2="102.068" stroke="#64748A" stroke-width="0.5" stroke-dasharray="2 2"/>
<line x1="595" y1="87.5227" y2="87.5227" stroke="#64748A" stroke-width="0.5" stroke-dasharray="2 2"/>
<line x1="595" y1="72.9773" y2="72.9773" stroke="#64748A" stroke-width="0.5" stroke-dasharray="2 2"/>
<line x1="595" y1="58.4318" y2="58.4318" stroke="#64748A" stroke-width="0.5" stroke-dasharray="2 2"/>
<line x1="595" y1="43.8864" y2="43.8864" stroke="#64748A" stroke-width="0.5" stroke-dasharray="2 2"/>
<line x1="595" y1="29.3409" y2="29.3409" stroke="#64748A" stroke-width="0.5" stroke-dasharray="2 2"/>
<line x1="595" y1="14.7955" y2="14.7955" stroke="#64748A" stroke-width="0.5" stroke-dasharray="2 2"/>
<line x1="595" y1="0.25" y2="0.25" stroke="#64748A" stroke-width="0.5" stroke-dasharray="2 2"/>
<line x1="594.75" y1="160" x2="594.75" y2="-16" stroke="#64748A" stroke-width="0.5" stroke-dasharray="2 2"/>
<line x1="578.75" y1="160" x2="578.75" y2="-16" stroke="#64748A" stroke-width="0.5" stroke-dasharray="2 2"/>
<line x1="562.75" y1="160" x2="562.75" y2="-16" stroke="#64748A" stroke-width="0.5" stroke-dasharray="2 2"/>
<line x1="546.75" y1="160" x2="546.75" y2="-16" stroke="#64748A" stroke-width="0.5" stroke-dasharray="2 2"/>
<line x1="530.75" y1="160" x2="530.75" y2="-16" stroke="#64748A" stroke-width="0.5" stroke-dasharray="2 2"/>
<line x1="514.75" y1="160" x2="514.75" y2="-16" stroke="#64748A" stroke-width="0.5" stroke-dasharray="2 2"/>
<line x1="498.75" y1="160" x2="498.75" y2="-16" stroke="#64748A" stroke-width="0.5" stroke-dasharray="2 2"/>
<line x1="482.75" y1="160" x2="482.75" y2="-16" stroke="#64748A" stroke-width="0.5" stroke-dasharray="2 2"/>
<line x1="466.75" y1="160" x2="466.75" y2="-16" stroke="#64748A" stroke-width="0.5" stroke-dasharray="2 2"/>
<line x1="450.75" y1="160" x2="450.75" y2="-16" stroke="#64748A" stroke-width="0.5" stroke-dasharray="2 2"/>
<line x1="434.75" y1="160" x2="434.75" y2="-16" stroke="#64748A" stroke-width="0.5" stroke-dasharray="2 2"/>
<line x1="418.75" y1="160" x2="418.75" y2="-16" stroke="#64748A" stroke-width="0.5" stroke-dasharray="2 2"/>
<line x1="402.75" y1="160" x2="402.75" y2="-16" stroke="#64748A" stroke-width="0.5" stroke-dasharray="2 2"/>
<line x1="386.75" y1="160" x2="386.75" y2="-16" stroke="#64748A" stroke-width="0.5" stroke-dasharray="2 2"/>
<line x1="370.75" y1="160" x2="370.75" y2="-16" stroke="#64748A" stroke-width="0.5" stroke-dasharray="2 2"/>
<line x1="354.75" y1="160" x2="354.75" y2="-16" stroke="#64748A" stroke-width="0.5" stroke-dasharray="2 2"/>
<line x1="338.75" y1="160" x2="338.75" y2="-16" stroke="#64748A" stroke-width="0.5" stroke-dasharray="2 2"/>
<line x1="322.75" y1="160" x2="322.75" y2="-16" stroke="#64748A" stroke-width="0.5" stroke-dasharray="2 2"/>
<line x1="306.75" y1="160" x2="306.75" y2="-16" stroke="#64748A" stroke-width="0.5" stroke-dasharray="2 2"/>
<line x1="290.75" y1="160" x2="290.75" y2="-16" stroke="#64748A" stroke-width="0.5" stroke-dasharray="2 2"/>
<line x1="274.75" y1="160" x2="274.75" y2="-16" stroke="#64748A" stroke-width="0.5" stroke-dasharray="2 2"/>
<line x1="258.75" y1="160" x2="258.75" y2="-16" stroke="#64748A" stroke-width="0.5" stroke-dasharray="2 2"/>
<line x1="242.75" y1="160" x2="242.75" y2="-16" stroke="#64748A" stroke-width="0.5" stroke-dasharray="2 2"/>
<line x1="226.75" y1="160" x2="226.75" y2="-16" stroke="#64748A" stroke-width="0.5" stroke-dasharray="2 2"/>
<line x1="210.75" y1="160" x2="210.75" y2="-16" stroke="#64748A" stroke-width="0.5" stroke-dasharray="2 2"/>
<line x1="194.75" y1="160" x2="194.75" y2="-16" stroke="#64748A" stroke-width="0.5" stroke-dasharray="2 2"/>
<line x1="178.75" y1="160" x2="178.75" y2="-16" stroke="#64748A" stroke-width="0.5" stroke-dasharray="2 2"/>
<line x1="162.75" y1="160" x2="162.75" y2="-16" stroke="#64748A" stroke-width="0.5" stroke-dasharray="2 2"/>
<line x1="146.75" y1="160" x2="146.75" y2="-16" stroke="#64748A" stroke-width="0.5" stroke-dasharray="2 2"/>
<line x1="130.75" y1="160" x2="130.75" y2="-16" stroke="#64748A" stroke-width="0.5" stroke-dasharray="2 2"/>
<line x1="114.75" y1="160" x2="114.75" y2="-16" stroke="#64748A" stroke-width="0.5" stroke-dasharray="2 2"/>
<line x1="98.75" y1="160" x2="98.75" y2="-16" stroke="#64748A" stroke-width="0.5" stroke-dasharray="2 2"/>
<line x1="82.75" y1="160" x2="82.75" y2="-16" stroke="#64748A" stroke-width="0.5" stroke-dasharray="2 2"/>
<line x1="66.75" y1="160" x2="66.75" y2="-16" stroke="#64748A" stroke-width="0.5" stroke-dasharray="2 2"/>
<line x1="50.75" y1="160" x2="50.75" y2="-16" stroke="#64748A" stroke-width="0.5" stroke-dasharray="2 2"/>
<line x1="34.75" y1="160" x2="34.75" y2="-16" stroke="#64748A" stroke-width="0.5" stroke-dasharray="2 2"/>
<line x1="18.75" y1="160" x2="18.75" y2="-16" stroke="#64748A" stroke-width="0.5" stroke-dasharray="2 2"/>
<line x1="2.75" y1="160" x2="2.75001" y2="-16" stroke="#64748A" stroke-width="0.5" stroke-dasharray="2 2"/>
<rect x="595" y="160" width="595" height="160" transform="rotate(-180 595 160)" fill="url(#paint0_linear_57_238)"/>
</g>
<defs>
<filter id="filter0_f_57_238" x="-206.948" y="-115.514" width="1019.71" height="591.217" filterUnits="userSpaceOnUse" color-interpolation-filters="sRGB">
<feFlood flood-opacity="0" result="BackgroundImageFix"/>
<feBlend mode="normal" in="SourceGraphic" in2="BackgroundImageFix" result="shape"/>
<feGaussianBlur stdDeviation="60" result="effect1_foregroundBlur_57_238"/>
</filter>
<linearGradient id="paint0_linear_57_238" x1="892.5" y1="160" x2="892.5" y2="320" gradientUnits="userSpaceOnUse">
<stop stop-color="white" stop-opacity="0"/>
<stop offset="1" stop-color="white"/>
</linearGradient>
<clipPath id="clip0_57_238">
<rect width="595" height="160" fill="white" transform="matrix(-1 0 0 -1 595 160)"/>
</clipPath>
</defs>
</svg>
